<svg xmlns="http://www.w3.org/2000/svg" width="96" height="96" viewBox="0 0 96 96" role="img" aria-label="RED BISONS">
  <rect width="96" height="96" rx="18" fill="#b91c1c"/>
  <path d="M24 31c8-9 24-10 38-5 6 2 10 5 13 9-7-2-14-1-20 2 5 2 9 6 11 12 2 8-3 17-13 21-8 3-19 3-28-2 9 0 17-3 21-8 3-4 3-10-2-13-4-3-11-2-17 1l-8-10c2-3 3-5 5-7Z" fill="#fff"/>
  <path d="M33 31c7 0 12 2 17 5-6-1-12 0-19 3l-5-6c2-1 4-2 7-2Z" fill="#111827" opacity=".28"/>
  <circle cx="64" cy="35" r="3" fill="#111827"/>
</svg>

